<svg version="1.1" preserveAspectRatio="none" xmlns="http://www.w3.org/2000/svg" width="500" height="500" viewBox="0 0 500 500"><rect width="100%" height="100%" fill="#F1F1F1" fill-opacity="1"/><svg viewBox="69.5014 56.9726 325.9388 231.9508" width="333" height="236.97582613668575" x="83.5px" y="131.5121px" xmlns="http://www.w3.org/2000/svg" xmlns:xlink="http://www.w3.org/1999/xlink" preserveAspectRatio="none"><defs></defs><style>.companyName {fill:#3B3B6B;fill-opacity:1;}.icon1 {fill:#D24848;fill-opacity:1;}.icon2 {fill:#CCAF60;fill-opacity:1;}.icon3 {fill:#797468;fill-opacity:1;}.icon3-str {stroke:#797468;stroke-opacity:1;}</style><g opacity="1" transform="rotate(0 69.5014 248.9234)">
<svg width="325.9388" height="40" x="69.5014" y="248.9234" version="1.1" preserveAspectRatio="none" viewBox="1.4 -29.68 307.36 37.72">
  <g transform="matrix(1 0 0 1 0 0)" class="companyName"><path id="id-D6z1nYkh13" d="M12.44 0.40Q9.20 0.40 6.18-0.52Q3.16-1.44 1.40-2.96L1.40-2.96L3.20-7Q4.92-5.64 7.42-4.78Q9.92-3.92 12.44-3.92L12.44-3.92Q15.56-3.92 17.10-4.92Q18.64-5.92 18.64-7.56L18.64-7.56Q18.64-8.76 17.78-9.54Q16.92-10.32 15.60-10.76Q14.28-11.20 12-11.76L12-11.76Q8.80-12.52 6.82-13.28Q4.84-14.04 3.42-15.66Q2-17.28 2-20.04L2-20.04Q2-22.36 3.26-24.26Q4.52-26.16 7.06-27.28Q9.60-28.40 13.28-28.40L13.28-28.40Q15.84-28.40 18.32-27.76Q20.80-27.12 22.60-25.92L22.60-25.92L20.96-21.88Q19.12-22.96 17.12-23.52Q15.12-24.08 13.24-24.08L13.24-24.08Q10.16-24.08 8.66-23.04Q7.16-22 7.16-20.28L7.16-20.28Q7.16-19.08 8.02-18.32Q8.88-17.56 10.20-17.12Q11.52-16.68 13.80-16.12L13.80-16.12Q16.92-15.40 18.92-14.62Q20.92-13.84 22.34-12.24Q23.76-10.64 23.76-7.92L23.76-7.92Q23.76-5.60 22.50-3.72Q21.24-1.84 18.68-0.72Q16.12 0.40 12.44 0.40L12.44 0.40Z M44.12-21.36L49.12-21.36L49.12 0L44.36 0L44.36-2.72Q43.16-1.28 41.36-0.50Q39.56 0.28 37.48 0.28L37.48 0.28Q33.20 0.28 30.74-2.10Q28.28-4.48 28.28-9.16L28.28-9.16L28.28-21.36L33.28-21.36L33.28-9.84Q33.28-6.96 34.58-5.54Q35.88-4.12 38.28-4.12L38.28-4.12Q40.96-4.12 42.54-5.78Q44.12-7.44 44.12-10.56L44.12-10.56L44.12-21.36Z M67.52-21.60Q70.64-21.60 73.10-20.24Q75.56-18.88 76.96-16.40Q78.36-13.92 78.36-10.68L78.36-10.68Q78.36-7.44 76.96-4.94Q75.56-2.44 73.10-1.08Q70.64 0.28 67.52 0.28L67.52 0.28Q65.32 0.28 63.50-0.48Q61.68-1.24 60.44-2.76L60.44-2.76L60.44 0L55.68 0L55.68-29.68L60.68-29.68L60.68-18.76Q61.96-20.16 63.70-20.88Q65.44-21.60 67.52-21.60L67.52-21.60ZM66.96-4Q69.72-4 71.50-5.84Q73.28-7.68 73.28-10.68L73.28-10.68Q73.28-13.68 71.50-15.52Q69.72-17.36 66.96-17.36L66.96-17.36Q65.16-17.36 63.72-16.54Q62.28-15.72 61.44-14.20Q60.60-12.68 60.60-10.68L60.60-10.68Q60.60-8.68 61.44-7.16Q62.28-5.64 63.72-4.82Q65.16-4 66.96-4L66.96-4Z M95.24-21.60Q99.28-21.60 101.72-19.24Q104.16-16.88 104.16-12.24L104.16-12.24L104.16 0L99.16 0L99.16-11.60Q99.16-14.40 97.84-15.82Q96.52-17.24 94.08-17.24L94.08-17.24Q91.32-17.24 89.72-15.58Q88.12-13.92 88.12-10.80L88.12-10.80L88.12 0L83.12 0L83.12-29.68L88.12-29.68L88.12-18.88Q89.36-20.20 91.18-20.90Q93-21.60 95.24-21.60L95.24-21.60Z M125.32-21.36L130.12-21.36L120.12 1.72Q118.72 5.20 116.72 6.62Q114.72 8.04 111.88 8.04L111.88 8.04Q110.28 8.04 108.72 7.52Q107.16 7 106.16 6.08L106.16 6.08L108.16 2.40Q108.88 3.08 109.86 3.48Q110.84 3.88 111.84 3.88L111.84 3.88Q113.16 3.88 114.02 3.20Q114.88 2.52 115.60 0.92L115.60 0.92L115.96 0.08L106.64-21.36L111.84-21.36L118.56-5.56L125.32-21.36Z M140.72-21.60Q145.44-21.60 147.94-19.34Q150.44-17.08 150.44-12.52L150.44-12.52L150.44 0L145.72 0L145.72-2.60Q144.80-1.20 143.10-0.46Q141.40 0.28 139 0.28L139 0.28Q136.60 0.28 134.80-0.54Q133-1.36 132.02-2.82Q131.04-4.28 131.04-6.12L131.04-6.12Q131.04-9 133.18-10.74Q135.32-12.48 139.92-12.48L139.92-12.48L145.44-12.48L145.44-12.80Q145.44-15.04 144.10-16.24Q142.76-17.44 140.12-17.44L140.12-17.44Q138.32-17.44 136.58-16.88Q134.84-16.32 133.64-15.32L133.64-15.32L131.68-18.96Q133.36-20.24 135.72-20.92Q138.08-21.60 140.72-21.60L140.72-21.60ZM140.04-3.36Q141.92-3.36 143.38-4.22Q144.84-5.08 145.44-6.68L145.44-6.68L145.44-9.16L140.28-9.16Q135.96-9.16 135.96-6.32L135.96-6.32Q135.96-4.96 137.04-4.16Q138.12-3.36 140.04-3.36L140.04-3.36Z M168.28-4.72L169.68-1.16Q168.80-0.44 167.54-0.08Q166.28 0.28 164.88 0.28L164.88 0.28Q161.36 0.28 159.44-1.56Q157.52-3.40 157.52-6.92L157.52-6.92L157.52-17.20L154-17.20L154-21.20L157.52-21.20L157.52-26.08L162.52-26.08L162.52-21.20L168.24-21.20L168.24-17.20L162.52-17.20L162.52-7.04Q162.52-5.48 163.28-4.66Q164.04-3.84 165.48-3.84L165.48-3.84Q167.16-3.84 168.28-4.72L168.28-4.72Z M178.56-18.24Q180.72-21.60 186.16-21.60L186.16-21.60L186.16-16.84Q185.52-16.96 185-16.96L185-16.96Q182.08-16.96 180.44-15.26Q178.80-13.56 178.80-10.36L178.80-10.36L178.80 0L173.80 0L173.80-21.36L178.56-21.36L178.56-18.24Z M198.44-21.60Q203.16-21.60 205.66-19.34Q208.16-17.08 208.16-12.52L208.16-12.52L208.16 0L203.44 0L203.44-2.60Q202.52-1.20 200.82-0.46Q199.12 0.28 196.72 0.28L196.72 0.28Q194.32 0.28 192.52-0.54Q190.72-1.36 189.74-2.82Q188.76-4.28 188.76-6.12L188.76-6.12Q188.76-9 190.90-10.74Q193.04-12.48 197.64-12.48L197.64-12.48L203.16-12.48L203.16-12.80Q203.16-15.04 201.82-16.24Q200.48-17.44 197.84-17.44L197.84-17.44Q196.04-17.44 194.30-16.88Q192.56-16.32 191.36-15.32L191.36-15.32L189.40-18.96Q191.08-20.24 193.44-20.92Q195.80-21.60 198.44-21.60L198.44-21.60ZM197.76-3.36Q199.64-3.36 201.10-4.22Q202.56-5.08 203.16-6.68L203.16-6.68L203.16-9.16L198.00-9.16Q193.68-9.16 193.68-6.32L193.68-6.32Q193.68-4.96 194.76-4.16Q195.84-3.36 197.76-3.36L197.76-3.36Z M216.16 0.28Q214.80 0.28 213.84-0.66Q212.88-1.60 212.88-3.04L212.88-3.04Q212.88-4.52 213.82-5.44Q214.76-6.36 216.16-6.36L216.16-6.36Q217.56-6.36 218.50-5.44Q219.44-4.52 219.44-3.04L219.44-3.04Q219.44-1.60 218.48-0.66Q217.52 0.28 216.16 0.28L216.16 0.28Z M234.12 0.28Q230.80 0.28 228.16-1.12Q225.52-2.52 224.04-5.02Q222.56-7.52 222.56-10.68L222.56-10.68Q222.56-13.84 224.04-16.32Q225.52-18.80 228.14-20.20Q230.76-21.60 234.12-21.60L234.12-21.60Q237.28-21.60 239.66-20.32Q242.04-19.04 243.24-16.64L243.24-16.64L239.40-14.40Q238.48-15.88 237.10-16.62Q235.72-17.36 234.08-17.36L234.08-17.36Q231.28-17.36 229.44-15.54Q227.60-13.72 227.60-10.68L227.60-10.68Q227.60-7.64 229.42-5.82Q231.24-4 234.08-4L234.08-4Q235.72-4 237.10-4.74Q238.48-5.48 239.40-6.96L239.40-6.96L243.24-4.72Q242.00-2.32 239.62-1.02Q237.24 0.28 234.12 0.28L234.12 0.28Z M256.84 0.28Q253.60 0.28 251.00-1.12Q248.40-2.52 246.94-5.02Q245.48-7.52 245.48-10.68L245.48-10.68Q245.48-13.84 246.94-16.32Q248.40-18.80 251.00-20.20Q253.60-21.60 256.84-21.60L256.84-21.60Q260.12-21.60 262.72-20.20Q265.32-18.80 266.78-16.32Q268.24-13.84 268.24-10.68L268.24-10.68Q268.24-7.52 266.78-5.02Q265.32-2.52 262.72-1.12Q260.12 0.28 256.84 0.28L256.84 0.28ZM256.84-4Q259.60-4 261.40-5.84Q263.20-7.68 263.20-10.68L263.20-10.68Q263.20-13.68 261.40-15.52Q259.60-17.36 256.84-17.36L256.84-17.36Q254.08-17.36 252.30-15.52Q250.52-13.68 250.52-10.68L250.52-10.68Q250.52-7.68 252.30-5.84Q254.08-4 256.84-4L256.84-4Z M300.00-21.60Q304.04-21.60 306.40-19.26Q308.76-16.92 308.76-12.24L308.76-12.24L308.76 0L303.76 0L303.76-11.60Q303.76-14.40 302.52-15.82Q301.28-17.24 298.96-17.24L298.96-17.24Q296.44-17.24 294.92-15.58Q293.40-13.92 293.40-10.84L293.40-10.84L293.40 0L288.40 0L288.40-11.60Q288.40-14.40 287.16-15.82Q285.92-17.24 283.60-17.24L283.60-17.24Q281.04-17.24 279.54-15.60Q278.04-13.96 278.04-10.84L278.04-10.84L278.04 0L273.04 0L273.04-21.36L277.80-21.36L277.80-18.64Q279.00-20.08 280.80-20.84Q282.60-21.60 284.80-21.60L284.80-21.60Q287.20-21.60 289.06-20.70Q290.92-19.80 292.00-18.04L292.00-18.04Q293.32-19.72 295.40-20.66Q297.48-21.60 300.00-21.60L300.00-21.60Z"/></g>
</svg>
</g><g opacity="1" transform="rotate(0 150.9861 56.9726)">
<svg width="162.9694" height="161.9508" x="150.9861" y="56.9726" version="1.1" preserveAspectRatio="none" viewBox="20 20.60000228881836 160 159">
  <g transform="matrix(1 0 0 1 0 0)"><g><path d="M27.7 133.5c1.6-1.2 2.4-3.1 3.6-4.5.6-.8 1.4-1.5 2.2-2 .8-.5 1.7-1.1 2.4-1.6 1.6-1.1 2.7-2.6 4.1-4.1.6-.7 1.4-1.4 2.2-2 .8-.6 1.8-1.2 2.8-1.3h.3l.1.3c.3.8.4 1.8.2 2.7-.1.8-.4 1.7-.6 2.5-.5 1.6-1 3.1-1 4.6 0 1.6.3 3.2 1 4.5.3.7.8 1.5 1 2.3.3.8.3 1.8.2 2.6-.1.8-.3 1.6-.3 2.4-.1.8 0 1.6 0 2.4.1 1.6.5 3.2.8 4.8.1.8.4 1.6.3 2.5-.1.8-.6 1.7-1.2 2.3a8.62 8.62 0 0 1-4.2 2.5c1.5-.6 2.9-1.6 4-2.8.5-.6.8-1.4.9-2.1 0-.7-.2-1.6-.4-2.3-.4-1.6-.8-3.2-1-4.8-.1-.8-.2-1.7-.1-2.5 0-.8.2-1.7.3-2.5.1-.8.1-1.6-.2-2.2-.2-.7-.6-1.4-1-2.2-.8-1.5-1.3-3.3-1.3-4.9 0-.8.1-1.8.3-2.5.2-.8.5-1.6.8-2.4.5-1.5 1-3.1.5-4.5l.5.3c-.8.1-1.7.5-2.4 1.1-.7.5-1.5 1.2-2.1 1.9-1.4 1.4-2.6 2.9-4.3 4-1.7 1.1-3.5 1.8-4.7 3.3-1.1 1.2-2.1 3.1-3.7 4.2z" data-color="1" class="icon1"></path><path d="M45 118.3c.4-.2.9-.1 1.5 0s.9.3 1.4.4c.9.4 1.8.9 2.5 1.6 1.5 1.4 2.7 2.6 4.5 3.4.8.4 1.7.4 2.7.6.9.1 2 .5 2.8.9 1.7.9 3.5 1.5 5.5 1.2-.9.3-1.9.4-2.9.3-.9-.1-2-.4-2.8-.8-.9-.4-1.7-.6-2.6-.7-.9-.1-2-.2-2.9-.6-1.9-.8-3.4-2.3-4.6-3.7-.6-.6-1.5-1.3-2.2-1.7-1-.5-1.9-.9-2.9-.9z" data-color="1" class="icon1"></path><path d="M47 148.9c.6-1.6 1.7-2.9 2.7-4.3 1.2-1.3 2.4-2.4 3.8-3.5s2.8-1.9 4.2-2.8 2.4-2.2 3.4-3.6c1.8-2.8 3.6-5.8 4.9-8.8.7-1.5.9-3.2 2-4.8.5-.7 1.3-1.5 2.1-1.9s1.7-.6 2.4-.8c3.1-.8 5.1-4.1 8.5-5.4 1.7-.6 3.4-.8 4.8-1.5 1.5-.6 2.7-1.7 3.9-2.9 1.2-1.3 2-2.6 3.3-4 1.2-1.3 2.3-2.4 3.6-3.7 1.2-1.2 2.4-2.4 3.5-3.8 1-1.4 2-2.7 2.4-4.4-.3 1.7-1.3 3.3-2.2 4.6-1 1.4-2.1 2.6-3.3 3.9l-3.5 3.8c-1 1.3-2 2.7-3 4.1-1 1.4-2.4 2.5-4.1 3.3s-3.4.9-4.8 1.5c-1.5.5-2.7 1.7-4.1 2.7-1.3 1.1-2.7 2.2-4.5 2.7-.8.3-1.7.4-2.3.8-.7.3-1.3.8-1.7 1.5-.8 1.3-1.2 3.1-1.9 4.6-1.4 3.2-3.3 6.1-5.1 9-.9 1.5-2.2 2.8-3.7 3.7-1.5.9-2.9 1.7-4.3 2.7-2.9 1.8-5.5 4.2-7 7.3z" data-color="1" class="icon1"></path><path d="M115.3 128.4c-1.3-1.4-2.7-2.6-4.3-3.7-.8-.5-1.7-.9-2.5-1.3s-1.7-1.1-2.3-1.8c-1.2-1.6-1.7-3.6-2.5-5.2-.8-1.7-2.3-2.7-4-3.7-.8-.5-1.7-1.1-2.4-1.7-.7-.7-1.4-1.7-1.5-2.7-.2-1.1.1-2.1.5-3.1.4-.9.9-1.8 1.4-2.5 1-1.6 1.8-3.3 2.5-5.1.7-1.8 1.3-3.6 1.6-5.4v-.3l.2.1c1.6-.5 3.1 0 4.4.7 1.3.8 2.2 2 3 3.1 1.7 2.3 3.3 4.6 4.9 6.8 1.7 2.3 3.3 4.6 4.8 6.9s3.3 4.6 5.4 6.4c-2.3-1.7-4.1-3.9-5.8-6.2l-5-6.7-5-6.7c-.8-1.1-1.8-2.1-2.8-2.8-1-.6-2.4-1.1-3.6-.6l.3-.4c-.3 2-.9 3.8-1.6 5.6-.7 1.8-1.6 3.6-2.6 5.2-.9 1.6-2 3.3-1.8 4.9.2 1.7 1.8 2.8 3.4 3.8.8.5 1.6 1.1 2.3 1.7.7.6 1.4 1.5 1.8 2.4.8 1.8 1.3 3.7 2.3 5.2.9 1.6 3 2 4.5 3.2 1.7 1.2 3.2 2.5 4.4 3.9z" data-color="1" class="icon1"></path><path d="M110.6 132.6c-.2-1.6-1.3-2.6-2.4-3.6-1.2-.9-2.5-1.7-3.6-2.9-.5-.8-.6-1.6-.8-2.3-.1-.7-.2-1.6-.2-2.3 0-1.6.1-3.1.4-4.5.1 1.5.2 3.1.4 4.5l.3 2.2c.1.7.3 1.5.6 1.9.8 1.1 2.1 1.9 3.3 3.1.5.5 1 1.2 1.5 1.9.4.6.8 1.3.5 2z" data-color="1" class="icon1"></path><path d="M116.1 149.5c-2.1-1.2-4.2-2.3-6.1-3.9-1.9-1.7-3.3-3.6-4.9-5.3-.8-.8-1.7-1.6-2.7-2.2-1-.5-2.1-.8-3.3-.9-1.2-.1-2.4-.1-3.7-.3-.6-.1-1.3-.3-1.9-.6-.6-.3-1.2-.7-1.6-1.3-.8-1.2-.9-2.5-1-3.7-.1-1.3-.1-2.4-.4-3.6-.2-1.2-.6-2.3-.7-3.6-.2-1.3-.1-2.6.3-3.8.7-2.4 2.1-4.4 3.3-6.5 1.2-2.1 2.5-4.2 2.8-6.5-.1 1.3-.4 2.4-.8 3.5-.4 1.2-.9 2.2-1.6 3.3-1 2.1-2.3 4.2-2.9 6.5-.3 1.2-.4 2.2-.2 3.4s.5 2.3.8 3.5c.6 2.4.2 5.1 1.5 6.8.6.8 1.7 1.4 2.7 1.5 1.2.2 2.3.2 3.6.4 1.3.1 2.5.5 3.6 1.2 1.2.6 2 1.5 2.8 2.4 1.7 1.8 3 3.8 4.7 5.5 1.6 1.6 3.7 2.8 5.7 4.2z" data-color="1" class="icon1"></path><path d="M117.4 107.5c3 .6 6.1 1.5 9 2.8 1.5.6 2.8 1.5 4.1 2.5.6.5 1.2 1.2 1.7 1.8.5.6.9 1.4 1.4 2 .8 1.4 1.7 2.6 2.8 3.4.6.4 1.4.8 1.9 1.6.5.6.8 1.5 1.2 2.1 1.2 2.8 3.5 5.2 6.4 6.3-1.6-.3-2.9-1.1-4.2-2.1-1.3-1.1-2.2-2.4-2.9-3.8-.3-.7-.7-1.4-1.2-1.9-.4-.5-1-.8-1.8-1.3-1.5-.9-2.4-2.3-3.3-3.7-.4-.6-.8-1.4-1.3-1.9-.4-.6-.9-1.2-1.6-1.6-1.2-1.1-2.4-1.8-3.8-2.5s-2.8-1.4-4.3-1.9c-1.1-.8-2.7-1.3-4.1-1.8z" data-color="1" class="icon1"></path><path d="M139.7 124.9c2.8-.5 5.8-1.4 8.8-.5.7.2 1.5.6 2 1.3.5.6.9 1.3 1.4 1.8.7 1.2 1.9 1.9 3.3 2.3 1.4.4 2.7.6 4.2.9 1.5.3 2.8.7 4.3 1.3 2.8.9 5.5 2.2 8.1 3.7l-4.1-1.6c-1.4-.5-2.7-.9-4.2-1.4-1.4-.4-2.8-.8-4.2-1.1-1.4-.3-2.9-.4-4.4-.9-.7-.2-1.5-.6-2.1-1.1-.6-.4-1.3-1.1-1.6-1.7-.4-.6-.7-1.3-1.3-1.8-.4-.5-.9-.8-1.7-1.1-1.3-.5-2.7-.5-4.2-.5-1.4 0-2.8.2-4.3.4z" data-color="1" class="icon1"></path><path d="M91.3 130c.2 1.4-.5 2.5-1.3 3.6-.7 1.1-1.6 2.1-2.4 3.1-.8 1.1-1.6 2-1.8 3.3-.3 1.2-.3 2.4-.1 3.7.4 2.4 1.7 4.7 3.4 6.5 1.7 1.9 3.8 3.4 6 4.7 1 .7 2.1 1.5 3.3 2.2.5.4 1 .8 1.6 1.4.4.5.7 1.3.9 1.9.4 1.3.8 2.4 1.5 3.5.6 1.1 1.4 2.2 2.1 3.3 1.5 2.1 2.9 4.3 4.4 6.3 1.5 2.1 3.1 4.1 4.7 6.1-3.6-3.7-6.8-7.8-9.9-12-.7-1.1-1.5-2.1-2.2-3.3-.3-.5-.6-1.2-.9-1.8-.3-.6-.4-1.3-.6-1.9-.2-.6-.4-1.2-.8-1.6-.3-.4-.8-.8-1.4-1.2l-3.3-2.1c-2.1-1.5-4.3-3.1-6.1-5.1-1.8-2-3.1-4.4-3.5-7.1-.2-1.4-.1-2.7.3-4 .3-1.4 1.3-2.4 2.1-3.4s1.8-1.9 2.5-2.9c.8-.8 1.5-1.9 1.5-3.2z" data-color="1" class="icon1"></path><path d="M138 139c.7.8 1.6 1.5 2.6 2 .9.5 2 .9 2.9 1.4 1 .3 2.1.6 3.1.8 1 .2 2.2.4 3.4.9 1 .5 1.9 1.4 2.7 2 .8.6 1.8 1.2 2.7 1.8.9.6 1.9 1.2 2.8 1.9.8.7 1.7 1.5 2.2 2.5-.7-.8-1.6-1.5-2.5-2.1-.9-.5-1.9-1.1-2.9-1.6-.9-.5-2-1.1-2.9-1.7s-1.7-1.4-2.6-1.9c-.9-.4-2-.7-3-.9-1-.2-2.2-.6-3.3-1.1-1.9-.9-4-2.1-5.2-4z" data-color="1" class="icon1"></path><path d="M138 139c-.1 1.6.2 3.1.6 4.5.4 1.5.9 2.9 1.6 4.2.7 1.4 1.5 2.8 1.7 4.5.1.8 0 1.7-.3 2.5s-.8 1.5-1.3 2.1c-.5.6-.9 1.2-1.4 1.8-.4.6-.6 1.3-.7 2-.1.7-.3 1.6-.6 2.3s-.8 1.4-1.3 2c-.9 1.3-2.1 2.3-2.5 3.7-.5 1.4-.7 2.9-.2 4.4-.4-.7-.5-1.5-.5-2.2s.1-1.6.2-2.3c.2-.7.5-1.6 1-2.2l1.4-1.9c.4-.6.8-1.3 1-1.9.3-.6.4-1.4.5-2.1.1-.7.4-1.7.8-2.3.4-.7.9-1.3 1.5-1.9.5-.6.8-1.2 1.2-1.8.2-.6.3-1.4.2-2-.1-1.5-.7-2.8-1.4-4.2-.6-1.5-1-2.9-1.4-4.5-.2-1.7-.4-3.3-.1-4.7z" data-color="1" class="icon1"></path><path d="M138.6 138.4c-1.3 1.5-2.3 3.1-3.5 4.6-1.2 1.6-2.3 3.1-3.6 4.5-1.3 1.5-2.6 2.9-4.4 3.9-1.8.8-3.6 1.5-4.9 2.7-1.4 1.2-2.5 2.7-3.5 4.4-.9 1.6-1.9 3.4-2.9 4.9-1 1.7-2.1 3.3-3.4 4.7s-2.7 2.8-4.3 3.9c1.5-1.3 2.8-2.6 3.9-4.2 1.2-1.6 2.1-3.2 3-4.8.9-1.7 1.8-3.4 2.8-5.1.9-1.7 2.1-3.4 3.7-4.6 1.6-1.4 3.5-2 5.1-2.8 1.6-.7 2.9-2.2 4.3-3.6 2.6-2.6 4.9-5.7 7.7-8.5z" data-color="1" class="icon1"></path><path d="M104.5 76.7c.4-4.6.9-9.3 1.6-13.9.6-4.6 1.3-9.3 2-13.8.7-4.6 1.5-9.2 2.3-13.8s1.7-9.2 2.6-13.7l-.9 6.9-.9 6.9-2.2 13.8-2.2 13.8-1.2 6.8-1.1 7z" data-color="1" class="icon1"></path><path d="M107.7 77.6l3.8-13.5 4-13.4c1.4-4.4 2.7-9 4.2-13.4s2.8-8.8 4.4-13.3l-1.8 6.7-1.9 6.7c-1.3 4.5-2.6 9-3.9 13.4-1.4 4.4-2.7 9-4.2 13.4-1.4 4.5-2.9 8.9-4.6 13.4z" data-color="1" class="icon1"></path><path d="M110.9 79c1.8-4.3 3.7-8.6 5.6-12.8s4-8.4 6-12.6c2.1-4.2 4.2-8.3 6.4-12.4l3.4-6.1c1.2-2 2.3-4.1 3.6-6.1l-3 6.3-3 6.3-6.2 12.5-6.2 12.5c-2.4 4.1-4.5 8.2-6.6 12.4z" data-color="1" class="icon1"></path><path d="M113.6 80.4c2.4-4 5-7.9 7.7-11.7 2.6-3.9 5.4-7.6 8.1-11.4 2.7-3.7 5.6-7.5 8.3-11.2l4.2-5.6 4.3-5.5c-1.3 2-2.6 3.9-3.9 5.8l-4 5.7-8.2 11.5-16.5 22.4z" data-color="1" class="icon1"></path><path d="M115.9 82.5c2.8-3.7 5.9-7.4 8.9-10.8 3-3.6 6.2-7.1 9.3-10.5 3.1-3.5 6.4-6.8 9.7-10.2l4.9-5.1c1.7-1.7 3.4-3.3 5-4.9-1.6 1.8-3.1 3.5-4.6 5.3l-4.7 5.2-9.4 10.3-19.1 20.7z" data-color="1" class="icon1"></path><path d="M118.6 84.8c3.1-3.4 6.5-6.6 9.9-9.9 3.4-3.3 6.8-6.3 10.2-9.5 3.5-3.1 6.9-6.2 10.4-9.3l5.2-4.5 5.2-4.5c-1.6 1.7-3.3 3.3-4.9 4.9l-5 4.8c-3.4 3.2-6.8 6.3-10.3 9.5l-20.7 18.5z" data-color="1" class="icon1"></path><path d="M120.2 86.9c3.6-2.9 7.3-5.8 11-8.5 3.7-2.8 7.4-5.6 11.1-8.3 3.8-2.7 7.6-5.5 11.3-8.1l5.7-4c1.9-1.3 3.8-2.6 5.8-3.9-1.8 1.5-3.7 2.8-5.5 4.3l-5.6 4.2c-3.7 2.8-7.4 5.6-11.1 8.3-3.8 2.7-7.6 5.5-11.3 8.1-3.7 2.7-7.5 5.3-11.4 7.9z" data-color="1" class="icon1"></path><path d="M122 89.9c3.8-2.6 7.8-5.2 11.6-7.7 4-2.5 8-4.8 12-7.3 4-2.3 8-4.6 12.1-6.9l6.1-3.5 6.1-3.4c-1.9 1.3-3.9 2.5-5.9 3.8l-5.9 3.7c-4 2.4-8 4.7-12 7.2l-12.1 7-12 7.1z" data-color="1" class="icon1"></path><path d="M101.4 76.4c-.2-4.6-.2-9.4-.3-14v-14c.1-4.6.1-9.3.2-14l.2-6.9.3-6.9c.1 2.3.1 4.6.2 6.9l.1 6.9v14c-.1 4.6-.1 9.4-.2 14-.1 4.7-.2 9.4-.5 14z" data-color="1" class="icon1"></path><path d="M98.2 76.4c-.7-4.6-1.4-9.3-1.9-13.8-.6-4.6-1-9.3-1.7-13.9-.4-4.6-.9-9.3-1.4-13.9l-.6-6.9c-.2-2.3-.4-4.6-.5-6.9.4 2.3.6 4.6 1 6.9l.9 6.9c.6 4.6 1 9.3 1.7 13.9.4 4.6.9 9.3 1.4 13.9.3 4.5.7 9.2 1.1 13.8z" data-color="1" class="icon1"></path><path d="M95.2 76.8c-1.4-4.4-2.7-9-4-13.4-1.3-4.5-2.4-9-3.7-13.5L84 36.3l-1.7-6.8c-.5-2.3-1-4.5-1.6-6.8.7 2.2 1.4 4.4 2 6.6l1.9 6.7c1.3 4.5 2.4 9 3.7 13.5l3.5 13.6c1.3 4.7 2.4 9.2 3.4 13.7z" data-color="1" class="icon1"></path><path d="M92.2 77.7c-2-4.2-3.9-8.5-5.8-12.7s-3.7-8.5-5.6-12.8l-5.4-13-2.6-6.5c-.8-2.2-1.7-4.3-2.5-6.5 1 2.1 2 4.2 2.9 6.3l2.8 6.4c1.9 4.2 3.7 8.5 5.6 12.8l5.4 13 2.6 6.5c1 2.1 1.8 4.3 2.6 6.5z" data-color="1" class="icon1"></path><path d="M89.2 78.8c-2.5-3.9-5-7.9-7.4-11.8l-7.2-12c-2.3-4-4.7-8-7-12.1l-3.5-6.1c-1.2-2-2.2-4.1-3.4-6.1 1.3 1.9 2.5 3.9 3.8 5.9l3.7 5.9 7.2 12c2.3 4 4.7 8 7 12.1 2.4 4.1 4.7 8.1 6.8 12.2z" data-color="1" class="icon1"></path><path d="M86.2 80.6c-3-3.5-6-7.2-8.8-10.8l-8.5-11.1-8.3-11.3-4.1-5.7-4-5.7 4.4 5.4 4.3 5.5L69.7 58 78 69.3c2.9 3.7 5.6 7.5 8.2 11.3z" data-color="1" class="icon1"></path><path d="M83.4 82.9c-3.1-3.4-6.3-6.8-9.4-10.3-3.1-3.5-6.2-6.9-9.2-10.4-3-3.6-6.1-7.1-9-10.6l-4.4-5.5c-1.5-1.9-2.8-3.7-4.2-5.6l18.5 21c3 3.6 6.1 7.1 9.1 10.6 2.7 3.6 5.7 7.2 8.6 10.8z" data-color="1" class="icon1"></path><path d="M80.6 86c-3.6-2.9-7-6.1-10.4-9.3-3.4-3.2-6.7-6.4-10.1-9.7-3.3-3.3-6.6-6.5-9.9-9.9-3.3-3.4-6.5-6.6-9.5-10.2l5.1 4.7 5 4.8L61 66.2 71 76l9.6 10z" data-color="1" class="icon1"></path><path d="M52.5 122.8c2-1.3 4.1-2.4 6.2-3.6 2.1-1.2 4.2-2.2 6.3-3.3 2.1-1.1 4.2-2.1 6.4-3.1l3.3-1.5c1-.4 2.2-.9 3.3-1.4-1 .6-2 1.3-3 1.8l-3.1 1.7c-2.1 1.2-4.2 2.2-6.3 3.3-2.1 1.1-4.2 2.1-6.4 3.1-2.4 1.3-4.5 2.2-6.7 3z" data-color="1" class="icon1"></path><path d="M123.1 92.5c4.1-2.1 8.3-4.2 12.5-6.2l12.6-6c4.2-1.9 8.4-3.9 12.7-5.8l6.4-2.8c2.1-.9 4.3-1.8 6.4-2.7-2.1 1.1-4.1 2.1-6.2 3.2l-6.3 3.1-12.6 6c-4.2 1.9-8.4 3.9-12.7 5.8-4.2 1.8-8.5 3.6-12.8 5.4z" data-color="1" class="icon1"></path><path d="M124.1 95.7l26.1-9.9 13.1-4.8 6.6-2.3c2.2-.7 4.4-1.6 6.6-2.3-2.1.9-4.3 1.8-6.4 2.7l-6.5 2.6c-4.3 1.8-8.7 3.4-13 5.1-4.4 1.6-8.7 3.2-13.1 4.7-4.5 1.4-8.9 2.9-13.4 4.2z" data-color="1" class="icon1"></path><path d="M122.9 109.2c4.5 1.3 8.9 2.6 13.4 4l13.3 4.1c4.4 1.5 8.9 2.8 13.3 4.3l6.6 2.3c2.2.8 4.4 1.6 6.5 2.4l-6.7-2-6.7-2-13.3-4.1c-4.4-1.5-8.9-2.8-13.3-4.3-4.3-1.5-8.7-2.9-13.1-4.7z" data-color="1" class="icon1"></path><path d="M123.9 106.9l27.6 4c4.6.7 9.1 1.5 13.7 2.2l6.8 1.3c2.3.4 4.5.9 6.8 1.5L165 114l-13.7-2c-4.6-.7-9.1-1.5-13.7-2.3-4.6-.7-9.2-1.7-13.7-2.8z" data-color="1" class="icon1"></path><path d="M124.4 104l6.9.1 6.9.1c4.6.1 9.2.3 14 .4 4.6.2 9.2.4 14 .7 4.6.3 9.2.7 13.8 1.4l-6.9-.3-6.9-.2-14-.5-14-.7c-4.5-.3-9.2-.5-13.8-1z" data-color="1" class="icon1"></path><path d="M124.5 101.6c2.3-.3 4.6-.5 6.9-.8 2.3-.3 4.6-.5 6.9-.8l13.8-1.8 13.8-1.6c4.6-.4 9.3-.8 14-.8-2.3.3-4.6.5-6.9.8l-6.9.8-13.8 1.8c-4.6.5-9.2 1.1-13.8 1.5-4.7.4-9.3.8-14 .9z" data-color="1" class="icon1"></path><path d="M124.5 98.7l6.8-1.7 6.8-1.6 13.6-3.2c4.5-.9 9.1-2 13.6-2.9L172 88c2.3-.4 4.6-.8 6.8-1.3-2.2.6-4.5 1.2-6.7 1.7l-6.8 1.7c-4.5 1.1-9 2.1-13.6 3.2-4.5.9-9.1 2-13.6 2.8-4.4 1.2-9 2-13.6 2.6z" data-color="1" class="icon1"></path><path d="M76.2 106.6c-4.3 1.7-8.7 3.2-13.1 4.6L50 115.7 36.8 120l-6.6 2.2-6.6 2.2c4.2-1.9 8.6-3.6 12.9-5.2s8.7-3.1 13.1-4.5l13.2-4.2 6.6-2 6.8-1.9z" data-color="1" class="icon1"></path><path d="M78.9 88.7c-3.9-2.6-7.6-5.4-11.3-8.1-3.8-2.7-7.4-5.6-11.2-8.3l-11-8.5-5.5-4.3c-1.9-1.5-3.7-3-5.5-4.5 1.9 1.3 3.8 2.6 5.7 4l5.7 4.1c3.8 2.7 7.4 5.6 11.2 8.3l11 8.5c3.6 2.9 7.2 5.8 10.9 8.8z" data-color="1" class="icon1"></path><path d="M77.5 91.5c-4.2-1.9-8.4-4-12.6-6-4.2-2.1-8.3-4.2-12.4-6.4s-8.2-4.4-12.2-6.8l-6-3.6c-2-1.3-4-2.4-5.9-3.7L53 78.1l12.3 6.6c4 2.2 8.1 4.5 12.2 6.8z" data-color="1" class="icon1"></path><path d="M76.4 94.6c-4.5-1.3-8.9-2.8-13.2-4.3-4.4-1.6-8.7-3.2-13.1-4.8-4.3-1.7-8.7-3.4-13-5.1-4.3-1.8-8.6-3.5-12.9-5.4 2.2.7 4.4 1.6 6.6 2.3l6.6 2.4 13 4.6 13 5.1 6.5 2.5c2.2 1 4.3 1.9 6.5 2.7z" data-color="1" class="icon1"></path><path d="M75.9 96.8c-4.6-.5-9.2-1.2-13.7-1.9-4.6-.6-9.1-1.5-13.7-2.1-4.6-.8-9.1-1.6-13.7-2.4l-6.9-1.3c-2.3-.4-4.5-.8-6.8-1.4 2.3.2 4.6.6 6.9.8l6.9.9c4.6.6 9.1 1.5 13.7 2.1 4.6.8 9.1 1.6 13.7 2.4 4.5 1.2 9 2 13.6 2.9z" data-color="1" class="icon1"></path><path d="M75.6 99.5L47.8 101l-14 .6-6.9.2c-2.3 0-4.6.1-6.9.1l6.9-.6 6.9-.5c4.6-.3 9.2-.5 14-.8 4.6-.2 9.3-.4 14-.4 4.5-.3 9.2-.3 13.8-.1z" data-color="1" class="icon1"></path><path d="M75.6 102.5l-6.8 1.5-6.8 1.4-13.7 2.6c-4.6.8-9.1 1.7-13.7 2.4s-9.1 1.5-13.8 2l13.6-2.8c4.5-.9 9.1-1.8 13.6-2.6 4.6-.8 9.1-1.7 13.7-2.4 4.7-.8 9.3-1.5 13.9-2.1z" data-color="1" class="icon1"></path></g></g>
</svg>
</g></svg></svg>